<?xml version="1.0" encoding="UTF-8"?>
<svg width="514px" height="115px" viewBox="0 0 514 115" version="1.1" xmlns="http://www.w3.org/2000/svg" xmlns:xlink="http://www.w3.org/1999/xlink">
    <!-- Generator: Sketch 48.2 (47327) - http://www.bohemiancoding.com/sketch -->
    <title>4c_logo-mrahmen-elinks</title>
    <desc>Created with Sketch.</desc>
    <defs>
        <polygon id="path-1" points="0 0.000311688312 513.846528 0.000311688312 513.846528 114.90961 0 114.90961"></polygon>
    </defs>
    <g id="Styleguide" stroke="none" stroke-width="1" fill="none" fill-rule="evenodd" transform="translate(-206.000000, -100.000000)">
        <g id="Head">
            <g id="4c_logo-mrahmen-elinks" transform="translate(206.000000, 100.000000)">
                <g id="Group-3">
                    <mask id="mask-2" fill="white">
                        <use xlink:href="#path-1"></use>
                    </mask>
                    <g id="Clip-2"></g>
                    <polyline id="Fill-1" fill="#282B2B" mask="url(#mask-2)" points="0 0.000311688312 0 115 482.631398 115 513.846528 0.000311688312 0 0.000311688312"></polyline>
                </g>
                <path d="M327.932247,86.3666569 C324.525772,86.3666569 322.821033,84.4714011 322.821033,81.1000754 C322.821033,77.9383427 323.247593,75.3057952 323.885932,71.935956 L329.422205,42.6494222 L342.514904,42.6494222 L343.259882,38.7518843 L330.272321,38.7518843 L332.402119,27.5825098 L327.187269,29.4807386 L325.482529,38.7518843 L317.606183,38.7518843 L316.861204,42.6494222 L324.630911,42.6494222 L318.991002,71.7248765 C318.244521,75.3057952 317.819463,78.2549619 317.819463,81.3111548 C317.819463,85.7349049 320.055901,90.4752743 326.973989,90.4752743 C329.102284,90.4752743 331.12394,90.1586551 332.508759,89.6324428 L332.082199,85.8404447 C331.0173,86.2611172 329.633983,86.3666569 327.932247,86.3666569 Z M266.382894,42.0369944 L248.770758,42.0369944 L236.40201,56.6267482 C235.017191,58.2930868 233.534743,60.1526673 232.04779,62.0137342 L231.851032,62.0137342 L239.86556,20.3939159 L225.715472,20.3939159 L212.358425,89.923792 L226.507011,89.923792 L229.476412,74.5476928 L234.820432,69.4550289 L243.32911,89.923792 L259.259036,89.923792 L245.801357,61.8175195 L266.382894,42.0369944 Z M274.353865,61.1322544 C275.343665,56.726342 279.202234,51.2412486 285.831943,51.2412486 C289.097232,51.2412486 291.076833,52.9061008 291.076833,55.2577045 C291.076833,59.7617243 285.536054,61.2303618 274.353865,61.1322544 Z M287.613283,40.9592999 C270.100277,40.9592999 259.413739,56.1376978 259.413739,70.7289381 C259.413739,83.2628967 266.539099,91 280.291164,91 C285.732813,91 292.759043,90.0204129 298.400453,87.1812453 L297.407649,76.9974039 C293.54908,78.8569843 289.097232,80.0327862 283.852342,80.0327862 C279.697885,80.0327862 276.434098,78.758877 274.553627,76.3121388 C273.562325,74.9401223 273.068176,72.7862197 272.969046,71.4156896 C292.46015,71.90474 304.433879,67.4973411 304.433879,55.3558119 C304.433879,46.4443933 297.407649,40.9592999 287.613283,40.9592999 Z M350.098366,38.7518843 L340.305501,89.3173101 L345.095293,89.3173101 L354.888158,38.7518843 L350.098366,38.7518843 Z M457.949042,41.6995645 C463.270533,41.6995645 467.102066,44.3335985 467.102066,49.3905871 C467.102066,59.3990244 453.264388,61.3998199 438.150033,61.1902269 C441.023308,51.1803032 448.687876,41.6995645 457.949042,41.6995645 Z M472,49.1809941 C472,43.2811741 468.061827,37.5909472 458.800661,37.5909472 C443.578164,37.5909472 432.082062,55.6070262 432.082062,70.6709656 C432.082062,80.5738632 436.873356,90.371221 449.857913,90.371221 C457.415842,90.371221 462.845474,88.0538062 465.40033,86.3666569 L463.910373,82.5746587 C461.355517,84.1547818 456.989281,86.2611172 450.497754,86.2611172 C444.748201,86.2611172 440.278329,83.4174902 438.150033,77.6232099 C436.873356,74.147831 436.766716,67.8273386 437.511695,65.1933046 C455.394186,65.4043841 472,62.6633238 472,49.1809941 Z M415.192375,37.5909472 C406.782828,37.8020266 400.289799,42.1217235 395.713287,49.9182857 C395.393367,42.3328029 391.455193,37.5909472 383.897265,37.5909472 C376.977675,37.5909472 370.379508,41.5955113 365.588214,48.9699146 L365.269795,48.9699146 L366.866393,38.7518843 L362.395019,38.7518843 C361.861818,42.7534754 361.224982,47.2842517 360.265221,52.3412403 L353.133853,89.3173101 L357.923645,89.3173101 L363.033357,62.2426514 C365.055013,50.9707102 374.742739,41.8065907 381.874107,41.8065907 C390.070374,41.8065907 391.348553,47.2842517 391.348553,52.0246211 C391.348553,54.1324428 391.135273,56.0262122 390.710215,58.4506532 L384.642244,89.3173101 L389.432036,89.3173101 L394.64989,61.5068462 C396.883324,49.4976133 406.03785,41.8065907 413.27736,41.8065907 C420.302088,41.8065907 422.642162,45.8081819 422.642162,52.3412403 C422.642162,54.5531153 422.217103,57.2926891 421.898685,59.1879449 L416.149132,89.3173101 L420.938924,89.3173101 L426.688477,59.1879449 C427.220176,56.1317519 427.540096,53.0785319 427.540096,50.6555774 C427.540096,40.5416004 419.875527,37.5909472 415.192375,37.5909472 Z M354.888158,28.5323675 C357.549654,28.5323675 358.932971,26.5300854 359.146251,24.2141571 C359.146251,21.8952558 357.762934,20 355.419856,20 C353.07828,20 351.481683,22.0007956 351.375043,24.2141571 C351.375043,26.5300854 352.653222,28.5323675 354.888158,28.5323675 Z M199.836476,42.0369944 L190.636891,89.923792 L204.883106,89.923792 L214.085694,42.0369944 L199.836476,42.0369944 Z M208.644046,36.0628507 L208.840805,36.0628507 C213.391783,36.0628507 217.251854,33.1255757 217.251854,28.1310192 C217.251854,23.919835 214.283955,21.1787748 210.028865,21.1787748 C205.674645,21.1787748 201.816077,24.4118583 201.816077,29.2087137 C201.816077,33.3217905 204.686347,36.0628507 208.644046,36.0628507 Z M162.183514,80.3271083 C158.819094,80.3271083 156.840996,78.4645549 156.743367,75.0382296 C156.642735,73.0805418 156.940126,71.3175823 157.237517,69.7508375 L158.126685,65.8339754 C159.808894,57.508228 164.855524,52.415564 170.001284,52.415564 C174.355503,52.415564 176.333602,55.9414831 176.333602,60.6417176 C176.333602,68.9659786 170.495433,80.3271083 162.183514,80.3271083 Z M176.630993,40.9592999 C170.693693,40.9592999 165.252045,43.6037392 161.689365,47.8149234 L161.491104,47.8149234 L167.231645,20.3939159 L152.883297,20.3939159 L143.087428,68.8693577 C142.494149,71.7085252 142,74.6458002 142,77.5830751 C142,86.1035508 147.737537,91 159.217117,91 C180.98371,91 191.273728,73.1771627 191.273728,57.7044427 C191.273728,49.1854535 186.722749,40.9592999 176.630993,40.9592999 Z" id="Fill-4" fill="#FFFFFE"></path>
                <path d="M55.1366096,82.406258 L34.2368348,49.1713275 L92.1548216,44.98022 L55.1366096,82.406258 Z M126.196144,24.1216643 L125.628689,22 L114.884565,22 L109.188994,27.7577372 L31.249437,44.4207094 L25.3557066,35.0507716 L17,35.0507716 L45.6504958,91.9970159 L45.6504958,92 L79.073322,92 C79.073322,92 103.04156,51.6063177 113.977837,43.400162 C114.747956,42.8242391 115.452021,42.400503 116.079524,42.1677466 C119.697428,40.7040668 122.354561,42.1483502 122.354561,42.1483502 L131,42.1677466 L126.196144,24.1216643 Z" id="Fill-5" fill="#9EC84C"></path>
            </g>
        </g>
    </g>
</svg>